<?xml version="1.0" encoding="UTF-8" standalone="no"?>
<!DOCTYPE svg PUBLIC "-//W3C//DTD SVG 1.1//EN" "http://www.w3.org/Graphics/SVG/1.1/DTD/svg11.dtd">
<svg width="100%" height="100%" viewBox="0 0 630 300" version="1.1" xmlns="http://www.w3.org/2000/svg" xmlns:xlink="http://www.w3.org/1999/xlink" xml:space="preserve" xmlns:serif="http://www.serif.com/" style="fill-rule:evenodd;clip-rule:evenodd;stroke-linecap:round;stroke-linejoin:round;stroke-miterlimit:1.5;">
    <g transform="matrix(1,0,0,1,-624.217,-1377.74)">
        <g>
            <g transform="matrix(0.768234,0,0,0.768234,211.098,503.225)">
                <g opacity="0.5">
                    <g>
                        <g transform="matrix(1,0,0,0.748197,0,347.622)">
                            <path d="M1251.02,1428.84L1251.02,1525.45C1251.02,1552.11 1234.83,1573.76 1214.88,1573.76L663.146,1573.76C643.198,1573.76 627.003,1552.11 627.003,1525.45L627.003,1428.84C627.003,1402.18 643.198,1380.53 663.146,1380.53L1214.88,1380.53C1234.83,1380.53 1251.02,1402.18 1251.02,1428.84Z" style="fill:white;stroke:rgb(245,247,250);stroke-width:8.21px;"/>
                        </g>
                        <g transform="matrix(1,0,0,1,-11.1145,-14.9511)">
                            <g transform="matrix(0.850806,0,0,0.850806,75.9422,194.511)">
                                <path d="M824.943,1465.11L824.943,1527.95C824.943,1545.29 810.863,1559.37 793.521,1559.37L730.675,1559.37C713.333,1559.37 699.253,1545.29 699.253,1527.95L699.253,1465.11C699.253,1447.76 713.333,1433.68 730.675,1433.68L793.521,1433.68C810.863,1433.68 824.943,1447.76 824.943,1465.11Z" style="fill:rgb(225,228,234);"/>
                            </g>
                            <g transform="matrix(1.64516,0,0,0.169355,-341.658,1187.71)">
                                <path d="M824.943,1496.53C824.943,1531.21 822.044,1559.37 818.474,1559.37L705.722,1559.37C702.151,1559.37 699.253,1531.21 699.253,1496.53C699.253,1461.84 702.151,1433.68 705.722,1433.68L818.474,1433.68C822.044,1433.68 824.943,1461.84 824.943,1496.53Z" style="fill:rgb(225,228,234);"/>
                            </g>
                            <g transform="matrix(3.34677,0,0,0.169355,-1531.52,1239.41)">
                                <path d="M824.943,1496.53C824.943,1531.21 823.518,1559.37 821.763,1559.37L702.433,1559.37C700.678,1559.37 699.253,1531.21 699.253,1496.53C699.253,1461.84 700.678,1433.68 702.433,1433.68L821.763,1433.68C823.518,1433.68 824.943,1461.84 824.943,1496.53Z" style="fill:rgb(225,228,234);"/>
                            </g>
                        </g>
                    </g>
                </g>
            </g>
            <g transform="matrix(0.882898,0,0,0.882898,109.96,258.971)">
                <g opacity="0.85">
                    <g>
                        <g transform="matrix(1,0,0,0.748197,0,347.622)">
                            <path d="M1251.02,1428.84L1251.02,1525.45C1251.02,1552.11 1234.83,1573.76 1214.88,1573.76L663.146,1573.76C643.198,1573.76 627.003,1552.11 627.003,1525.45L627.003,1428.84C627.003,1402.18 643.198,1380.53 663.146,1380.53L1214.88,1380.53C1234.83,1380.53 1251.02,1402.18 1251.02,1428.84Z" style="fill:white;stroke:rgb(245,247,250);stroke-width:7.15px;"/>
                        </g>
                        <g transform="matrix(1,0,0,1,-11.1145,-14.9511)">
                            <g transform="matrix(0.850806,0,0,0.850806,75.9422,194.511)">
                                <path d="M824.943,1465.11L824.943,1527.95C824.943,1545.29 810.863,1559.37 793.521,1559.37L730.675,1559.37C713.333,1559.37 699.253,1545.29 699.253,1527.95L699.253,1465.11C699.253,1447.76 713.333,1433.68 730.675,1433.68L793.521,1433.68C810.863,1433.68 824.943,1447.76 824.943,1465.11Z" style="fill:rgb(225,228,234);"/>
                            </g>
                            <g transform="matrix(1.64516,0,0,0.169355,-341.658,1187.71)">
                                <path d="M824.943,1496.53C824.943,1531.21 822.044,1559.37 818.474,1559.37L705.722,1559.37C702.151,1559.37 699.253,1531.21 699.253,1496.53C699.253,1461.84 702.151,1433.68 705.722,1433.68L818.474,1433.68C822.044,1433.68 824.943,1461.84 824.943,1496.53Z" style="fill:rgb(225,228,234);"/>
                            </g>
                            <g transform="matrix(3.34677,0,0,0.169355,-1531.52,1239.41)">
                                <path d="M824.943,1496.53C824.943,1531.21 823.518,1559.37 821.763,1559.37L702.433,1559.37C700.678,1559.37 699.253,1531.21 699.253,1496.53C699.253,1461.84 700.678,1433.68 702.433,1433.68L821.763,1433.68C823.518,1433.68 824.943,1461.84 824.943,1496.53Z" style="fill:rgb(225,228,234);"/>
                            </g>
                        </g>
                    </g>
                </g>
            </g>
            <g>
                <g>
                    <g transform="matrix(1,0,0,0.748197,0,347.622)">
                        <path d="M1251.02,1428.84L1251.02,1525.45C1251.02,1552.11 1234.83,1573.76 1214.88,1573.76L663.146,1573.76C643.198,1573.76 627.003,1552.11 627.003,1525.45L627.003,1428.84C627.003,1402.18 643.198,1380.53 663.146,1380.53L1214.88,1380.53C1234.83,1380.53 1251.02,1402.18 1251.02,1428.84Z" style="fill:white;stroke:rgb(245,247,250);stroke-width:6.31px;"/>
                    </g>
                    <g transform="matrix(1,0,0,1,-11.1145,-14.9511)">
                        <g transform="matrix(0.850806,0,0,0.850806,75.9422,194.511)">
                            <path d="M824.943,1465.11L824.943,1527.95C824.943,1545.29 810.863,1559.37 793.521,1559.37L730.675,1559.37C713.333,1559.37 699.253,1545.29 699.253,1527.95L699.253,1465.11C699.253,1447.76 713.333,1433.68 730.675,1433.68L793.521,1433.68C810.863,1433.68 824.943,1447.76 824.943,1465.11Z" style="fill:rgb(225,228,234);"/>
                        </g>
                        <g transform="matrix(1.64516,0,0,0.169355,-341.658,1187.71)">
                            <path d="M824.943,1496.53C824.943,1531.21 822.044,1559.37 818.474,1559.37L705.722,1559.37C702.151,1559.37 699.253,1531.21 699.253,1496.53C699.253,1461.84 702.151,1433.68 705.722,1433.68L818.474,1433.68C822.044,1433.68 824.943,1461.84 824.943,1496.53Z" style="fill:rgb(225,228,234);"/>
                        </g>
                        <g transform="matrix(3.34677,0,0,0.169355,-1531.52,1239.41)">
                            <path d="M824.943,1496.53C824.943,1531.21 823.518,1559.37 821.763,1559.37L702.433,1559.37C700.678,1559.37 699.253,1531.21 699.253,1496.53C699.253,1461.84 700.678,1433.68 702.433,1433.68L821.763,1433.68C823.518,1433.68 824.943,1461.84 824.943,1496.53Z" style="fill:rgb(225,228,234);"/>
                        </g>
                    </g>
                </g>
            </g>
        </g>
    </g>
</svg>
